<svg width="48" height="48" viewBox="0 0 48 48" fill="none" xmlns="http://www.w3.org/2000/svg">
<g id="star-solid">
<path id="Vector" d="M26.0632 4.66235C25.6457 3.7687 24.7633 3.20001 23.7943 3.20001C22.8254 3.20001 21.9509 3.7687 21.5255 4.66235L16.46 15.4105L5.14725 17.1328C4.20189 17.2791 3.4141 17.9615 3.12262 18.8958C2.83113 19.83 3.06747 20.8618 3.74497 21.5523L11.9538 29.9283L10.0158 41.7651C9.85826 42.74 10.2522 43.7311 11.0321 44.3079C11.812 44.8847 12.844 44.9578 13.6948 44.4948L23.8022 38.9298L33.9096 44.4948C34.7604 44.9578 35.7924 44.8928 36.5724 44.3079C37.3523 43.723 37.7462 42.74 37.5886 41.7651L35.6428 29.9283L43.8516 21.5523C44.5291 20.8618 44.7733 19.83 44.4739 18.8958C44.1746 17.9615 43.3947 17.2791 42.4493 17.1328L31.1287 15.4105L26.0632 4.66235Z" fill="#292929"/>
</g>
</svg>
